<?xml version="1.0" encoding="utf-8"?>
<!-- Generator: Adobe Illustrator 24.3.0, SVG Export Plug-In . SVG Version: 6.00 Build 0)  -->
<svg version="1.1" id="Layer_1" xmlns="http://www.w3.org/2000/svg" xmlns:xlink="http://www.w3.org/1999/xlink" x="0px" y="0px"
	 viewBox="0 0 167.2 153.6" style="enable-background:new 0 0 167.2 153.6;" xml:space="preserve">
<style type="text/css">
	.st0{fill:#F5333F;}
</style>
<path class="st0" d="M68,18.7c0,0-2.7,4.5-3.7,6c-0.1,1.5-1.4,2.7-2.9,2.8c0,0-0.1,0-0.1,0c-1.8,1.1-5.6,3.5-5.7,3.5l-5.3,1.2
	c-0.3,0.2-0.7-0.1-0.7-0.4l0-0.7c0-0.2-0.1-0.3-0.2-0.4L48.6,30c-0.2-0.2-0.3-0.5-0.1-0.7l0.8-0.9c0-0.6-0.7-0.3-0.7-0.3
	c-0.4,0.1-0.7-0.3-0.6-0.7l0.3-0.7c0.1-0.2,0-0.3-0.1-0.5l-0.6-0.8c-0.2-0.2-0.1-0.6,0.1-0.7l1.1-0.7c0.2-0.1,0.3-0.4,0.2-0.6
	l-0.5-1.3c-0.1-0.3,0-0.5,0.3-0.6L50,21c0.2-0.1,0.4-0.4,0.3-0.6L49.9,19c-0.1-0.3,0.1-0.5,0.3-0.6l1.2-0.4c0.2-0.1,0.3-0.2,0.4-0.4
	l0.3-1.8c0-0.2,0.2-0.4,0.4-0.4l1.8-0.3c0.2,0,0.3-0.2,0.4-0.4l0.3-1.2c0.1-0.3,0.3-0.4,0.6-0.4l1.4,0.4c0.2,0.1,0.5-0.1,0.6-0.3
	L58,12c0.1-0.3,0.4-0.4,0.6-0.3l1.4,0.5c0.2,0.1,0.5,0,0.6-0.2l0.7-1.1c0.2-0.2,0.5-0.3,0.7-0.1l0.8,0.6c0.1,0.1,0.3,0.1,0.5,0.1
	l0.7-0.3c0.4-0.1,0.7,0.2,0.7,0.5l0,0.8c0.2,0.1,0.4,0.1,0.6,0l0.9-0.8c0.2-0.2,0.5-0.1,0.7,0.1l0.6,0.8c0.1,0.1,0.2,0.2,0.4,0.2
	l0.7,0c0.4,0,0.6,0.4,0.4,0.7L68,18.7z M62.4,28.2c0.4-0.3,1,0,1,0.5L63.3,34c0,0.5-0.5,0.8-0.9,0.6l-0.2-0.1
	c-0.3-0.2-0.7,0-0.8,0.3l-0.6,1.3c-0.2,0.3-0.6,0.5-0.9,0.3l-0.8-0.5c-0.3-0.2-0.7-0.1-0.9,0.3l-0.6,1.2c-0.2,0.3-0.6,0.5-0.9,0.3
	L56,37.1c-0.2-0.1-0.6-0.1-0.8,0.1l0,0c-0.4,0.4-1.1,0.1-1.1-0.5l0.5-3.1c0-0.2,0.1-0.3,0.3-0.4L62.4,28.2z M74.3,19.8
	c0.2,0.3,0.1,0.7-0.2,0.9l-1.2,0.6c-0.3,0.2-0.4,0.6-0.2,0.9l0.5,0.8c0.2,0.3,0.1,0.7-0.3,0.9l-1.3,0.6c-0.3,0.1-0.5,0.5-0.3,0.8
	l0.1,0.2c0.2,0.4-0.1,0.9-0.5,0.9l-5.3,0.3c-0.5,0-0.8-0.5-0.6-0.9l4.7-7.7c0.1-0.2,0.3-0.3,0.4-0.3l3.1-0.6c0.6-0.1,1,0.6,0.5,1
	c-0.2,0.2-0.2,0.5-0.1,0.8L74.3,19.8 M68.7,31.2c0-0.4-0.3-0.8-0.8-0.8s-0.8,0.3-0.8,0.8c0,0.4,0.3,0.8,0.8,0.8S68.7,31.7,68.7,31.2
	 M98.5,31.2c0,0.4,0.3,0.8,0.8,0.8s0.8-0.3,0.8-0.8c0-0.4-0.3-0.8-0.8-0.8S98.5,30.8,98.5,31.2 M95.5,32c0.1-0.2,0.2-0.4,0.1-0.7
	c-0.1-1.3,0.3-2.5,1.2-3.4l0.2-0.2c0.1-0.1,0.3-0.2,0.4-0.2l4.6,0.2c0.3,0,0.6,0.3,0.6,0.6l0,4.6c0,0.2-0.1,0.3-0.2,0.4l-0.2,0.2
	c-0.9,0.9-2.2,1.3-3.4,1.1c-0.1,0-0.3,0-0.4,0l-12,11.9L104.2,64c2.5,2.5,6.6,2.5,9.1,0c1.2-1.2,1.9-2.8,1.9-4.6
	c0-1.7-0.7-3.4-1.9-4.6l-2.5-2.5c-0.1-0.1-0.1-0.1-0.1-0.2l-1.1-1.1l0.2,4.3c0.1,1.1-0.8,2.1-1.9,2.1c0,0-0.1,0-0.1,0
	c-1.1,0-2-0.8-2-1.9l-0.5-9.6c0-0.8,0.4-1.6,1.2-2c0.8-0.3,1.7-0.2,2.3,0.4l6,6c0,0,0,0.1,0.1,0.1l1.4,1.3c2,2,3.1,4.6,3.1,7.5
	c0,2.8-1.1,5.5-3.1,7.5c-2,2-4.7,3-7.4,3c-2.7,0-5.3-1-7.4-3L83.6,49.5L65.9,66.9c-2,2-4.7,3-7.4,3c-2.7,0-5.4-1-7.4-3
	c-2-2-3.1-4.6-3.1-7.5c0-2.8,1.1-5.5,3.1-7.5l1.4-1.3c0,0,0-0.1,0.1-0.1l6-6c0.6-0.6,1.5-0.8,2.3-0.4c0.8,0.3,1.2,1.1,1.2,2
	l-0.5,9.6c-0.1,1.1-1,1.9-2,1.9c0,0-0.1,0-0.1,0c-1.1-0.1-2-1-1.9-2.1l0.2-4.3l-1.1,1.1c-0.1,0.1-0.1,0.1-0.1,0.2L54,54.9
	c-1.2,1.2-1.9,2.8-1.9,4.6c0,1.7,0.7,3.4,1.9,4.6c2.5,2.5,6.6,2.5,9.1,0l17.7-17.4l-12-11.9c-0.1,0-0.3,0-0.4,0
	c-1.2,0.2-2.5-0.2-3.4-1.1l-0.2-0.2c-0.1-0.1-0.2-0.3-0.2-0.4l0-4.6c0-0.3,0.3-0.6,0.6-0.6l4.6-0.2c0.2,0,0.3,0.1,0.4,0.2l0.2,0.2
	c0.9,0.9,1.4,2.1,1.2,3.4c0,0.2,0,0.5,0.1,0.7l11.9,11.8L95.5,32 M113.1,36.7c0.1,0.6-0.6,0.9-1.1,0.5l0,0c-0.2-0.2-0.5-0.2-0.8-0.1
	l-0.8,0.5c-0.3,0.2-0.7,0.1-0.9-0.3l-0.6-1.2c-0.2-0.3-0.6-0.5-0.9-0.3l-0.8,0.5c-0.3,0.2-0.7,0.1-0.9-0.3l-0.6-1.3
	c-0.1-0.3-0.5-0.5-0.8-0.3l-0.2,0.1c-0.4,0.2-0.9-0.1-0.9-0.6l-0.1-5.3c0-0.5,0.5-0.8,1-0.5l7.5,4.9c0.2,0.1,0.3,0.3,0.3,0.4
	L113.1,36.7 M102.2,25.7c0.3,0.4-0.1,1-0.6,0.9l-5.2-0.3c-0.5,0-0.7-0.5-0.5-0.9l0.1-0.2c0.2-0.3,0-0.7-0.3-0.8l-1.3-0.6
	c-0.3-0.2-0.5-0.6-0.3-0.9l0.5-0.8c0.2-0.3,0.1-0.7-0.2-0.9l-1.2-0.6c-0.3-0.2-0.4-0.6-0.2-0.9l0.5-0.8c0.2-0.2,0.1-0.6-0.1-0.8
	c-0.4-0.4,0-1.1,0.5-1l3.1,0.6c0.2,0,0.3,0.1,0.4,0.3L102.2,25.7 M119.4,24.8c0.2,0.2,0.3,0.5,0.1,0.7l-0.6,0.8
	c-0.1,0.1-0.1,0.3-0.1,0.5l0.3,0.7c0.1,0.4-0.2,0.7-0.6,0.7c0,0-0.7-0.4-0.7,0.3l0.8,0.9c0.2,0.2,0.1,0.5-0.1,0.7l-0.8,0.6
	c-0.1,0.1-0.2,0.2-0.2,0.4l0,0.7c0,0.4-0.4,0.6-0.7,0.4l-5.3-1.2c0,0-3.9-2.4-5.7-3.5c0,0-0.1,0-0.1,0c-1.5-0.1-2.8-1.3-2.9-2.8
	c-1-1.6-3.7-6-3.7-6l-1.2-5.3c-0.2-0.3,0.1-0.7,0.4-0.7l0.7,0c0.2,0,0.3-0.1,0.4-0.2l0.6-0.8c0.2-0.2,0.5-0.3,0.7-0.1l0.9,0.8
	c0.2,0.1,0.4,0.1,0.6,0l0-0.8c-0.1-0.4,0.3-0.7,0.7-0.5l0.7,0.3c0.2,0.1,0.3,0,0.5-0.1l0.8-0.6c0.2-0.2,0.6-0.1,0.7,0.1l0.7,1.1
	c0.1,0.2,0.4,0.3,0.6,0.2l1.4-0.5c0.3-0.1,0.5,0,0.6,0.3l0.5,1.2c0.1,0.2,0.3,0.4,0.6,0.3l1.4-0.4c0.3-0.1,0.5,0.1,0.6,0.4l0.3,1.2
	c0.1,0.2,0.2,0.3,0.4,0.4l1.8,0.3c0.2,0,0.4,0.2,0.4,0.4l0.3,1.8c0,0.2,0.2,0.4,0.4,0.4l1.2,0.4c0.3,0.1,0.4,0.3,0.3,0.6l-0.4,1.4
	c-0.1,0.2,0.1,0.5,0.3,0.6l1.2,0.5c0.2,0.1,0.4,0.4,0.3,0.6l-0.5,1.3c-0.1,0.2,0,0.5,0.2,0.6L119.4,24.8z"/>
</svg>
