<?xml version="1.0" encoding="utf-8"?>
<!-- Generator: Adobe Illustrator 25.2.0, SVG Export Plug-In . SVG Version: 6.00 Build 0)  -->
<svg version="1.1" id="Capa_1" xmlns="http://www.w3.org/2000/svg" xmlns:xlink="http://www.w3.org/1999/xlink" x="0px" y="0px"
	 viewBox="0 0 80 49" style="enable-background:new 0 0 80 49;" xml:space="preserve">
<style type="text/css">
	.st0{fill:#E30613;}
	.st1{fill:#FFFFFF;}
</style>
<g>
	<defs>
		<rect id="SVGID_1_" x="-361.4" y="-501.6" width="595.3" height="841.9"/>
	</defs>
	<clipPath id="SVGID_2_">
		<use xlink:href="#SVGID_1_"  style="overflow:visible;"/>
	</clipPath>
</g>
<g>
	<defs>
		<rect id="SVGID_3_" x="-361.4" y="-501.6" width="595.3" height="841.9"/>
	</defs>
	<clipPath id="SVGID_4_">
		<use xlink:href="#SVGID_3_"  style="overflow:visible;"/>
	</clipPath>
</g>
<path class="st0" d="M23.8,26.3c-0.6,1.5-1.1,2.8-1.7,3.9l-1.5,3.2c-0.5,1-1,2.1-1.4,3.3c-0.4,1.2-0.9,2.6-1.3,4.2l-0.8,0.5
	l-0.2-0.2l0.7-2c-0.3,0-0.5,0.1-0.7,0.5c-0.2,0.4-0.3,0.8-0.4,1.2c-0.5-0.4-0.8-0.7-1.2-0.9c0-0.5-0.1-0.6-0.6-0.3
	c0-0.2,0-0.4-0.1-0.6c0-0.2-0.1-0.4-0.1-0.5c0-0.2,0.1-0.3,0.3-0.5c0.2-0.2,0.3-0.4,0.3-0.7c0-0.6,0.2-1.5,0.6-2.6
	c0.4-1.1,0.8-2.2,1.3-3.3c0.5-1.1,1-2.1,1.5-3c-0.3,0-0.7,0.1-1.2,0.4c-0.5,0.2-1,0.5-1.4,0.7c-0.4-0.4-0.7-0.9-0.9-1.4
	c-0.2-0.5-0.3-1-0.3-1.5c0-0.5,0.3-0.8,0.8-0.9c1-0.3,2-0.7,3-1.2c1-0.5,2-0.9,3-1.2c0.3,0,0.6,0.1,0.9,0.2c0.3,0.1,0.5,0.2,0.7,0.2
	C23.5,24.4,23.7,25.3,23.8,26.3 M38.3,27.1c0,0.9-0.1,1.6-0.4,2.2c-0.2,0.6-0.5,1.2-0.7,1.8c-0.2-0.1-0.3,0-0.4,0.2
	c0,0.2-0.1,0.5-0.3,0.7c-0.2,0.3-0.4,0.4-0.6,0.5c-0.2,0.1-0.2,0.3-0.1,0.6c-0.4,0.2-0.8,0.5-1,0.8c-0.3,0-0.5,0.1-0.7,0.3l0.3,0.4
	c-0.1,0.2-0.2,0.4-0.3,0.7l-0.8,0.4c-0.6,1-1.4,2.2-2.5,3.5c-0.2-0.1-0.5-0.1-0.8,0c-0.3,0.2-0.6,0.4-0.8,0.7
	c-0.3,0.3-0.5,0.6-0.7,0.9l0.1,0.3c0.1-0.2,0.3-0.3,0.4-0.4c0.2-0.1,0.3,0,0.5,0.1c-0.7,0.8-1.4,1.6-2.1,2.3
	c-0.5-0.1-0.8-0.3-1.1-0.5c-0.2-0.2-0.5-0.4-0.7-0.7c-0.2-0.2-0.4-0.4-0.7-0.5l0-1.5c0.1,0,0.2,0,0.3-0.1c0.1,0,0.1-0.1,0.1-0.2
	L25,39.4v-0.4c0.6-0.4,1.3-0.9,1.8-1.5c0.6-0.6,1.2-1.3,1.7-2c0.6-0.7,1.1-1.5,1.7-2.2c-0.1-0.1-0.2-0.3-0.1-0.4
	c0.2-0.3,0.5-0.6,0.7-0.9L28,31.5c-0.1-0.3-0.3-0.6-0.5-0.8c-0.2-0.2-0.4-0.2-0.6-0.1c-0.6-0.5-1.1-1.1-1.5-1.7
	c-0.4-0.6-0.6-1.2-0.7-1.7c0-0.7,0.2-1.3,0.7-1.7c0.4-0.5,0.9-0.9,1.4-1.4c0.7-0.2,1.5-0.4,2.4-0.6c0.9-0.2,1.9-0.3,2.9-0.4
	c1-0.1,1.9-0.2,2.8-0.2c0.2,0.3,0.5,0.5,0.8,0.7c0.3,0.2,0.6,0.2,1.1,0.2C37.7,24.4,38.2,25.5,38.3,27.1 M30.2,40
	c-0.2,0.2-0.3,0.4-0.4,0.6l-0.2-0.5C29.7,40,29.9,40,30.2,40 M34.7,26.7c-0.6-0.1-1.2-0.1-1.9-0.1c-0.7,0-1.3,0.1-1.9,0.3
	c-0.6,0.2-1.1,0.5-1.4,0.8c0.2,0.4,0.6,0.9,1.1,1.3s1,0.9,1.4,1.4C33,29.3,33.8,28,34.7,26.7 M28.4,24.2c-0.2,0-0.5,0.1-0.7,0.1
	c-0.2,0.1-0.4,0.1-0.6,0.2l0.1,0.2c0.3-0.1,0.5-0.1,0.8-0.2C28.1,24.5,28.3,24.4,28.4,24.2 M31.5,37.8c-0.3,0-0.6,0.2-0.9,0.6
	l0.3,0.1L31.5,37.8z M53.8,29.2l-0.3,0.4c0.4,0.6,0.6,1.3,0.5,2.1c-0.1,0.8-0.3,1.5-0.8,2.3c-0.4,0.8-1,1.6-1.7,2.3
	c0-0.4-0.1-0.5-0.2-0.4c-0.1,0.1-0.3,0.3-0.4,0.5c-0.1,0.3-0.2,0.6-0.3,0.9c-0.6,0.6-1.3,1.1-1.9,1.5c-0.2,0-0.4,0-0.6,0
	c-0.2,0-0.4,0.1-0.6,0.3c-0.4,0.3-0.9,0.6-1.4,0.8c-0.6,0.2-1.1,0.4-1.6,0.5c-0.1-0.1-0.3-0.2-0.5-0.3c-0.2-0.1-0.3-0.1-0.5,0
	L42,39.1c-0.3,0.3-0.5,0.3-0.8,0.1c-0.3-0.2-0.6-0.6-0.8-1.1c-0.3-0.5-0.5-1.1-0.8-1.7c0-1.7,0.3-3.3,0.9-4.7
	c0.6-1.4,1.3-2.6,2.2-3.7c0.9-1.1,1.8-2,2.7-2.7c0.9-0.7,1.8-1.3,2.5-1.6c0.7-0.4,1.3-0.5,1.6-0.5c0.3,0,0.8,0.1,1.3,0.4
	c0.6,0.2,1,0.5,1.4,0.7l0.7,1.8l0.3-0.1c0,0.5-0.2,1-0.5,1.5c-0.1,0.2-0.1,0.5,0.2,0.8C53.1,28.5,53.4,28.8,53.8,29.2 M50.7,27.3
	c-0.9,0-1.8,0.4-2.7,1c-0.9,0.6-1.7,1.5-2.5,2.5c-0.8,1-1.4,2-1.9,3.1c-0.1,0-0.3,0-0.5,0.1c-0.2,0.1-0.3,0.2-0.3,0.3l0.5,0.2
	c-0.4,1-0.7,1.9-0.8,2.7l1.8-0.3c0.6-0.2,1.2-0.6,1.9-1.2c0.7-0.5,1.4-1.2,2-1.9c0.6-0.7,1.1-1.4,1.5-2c-0.7-1.8-0.6-2.9,0.3-3.4
	c0.2-0.1,0.4-0.3,0.5-0.5C50.7,27.7,50.8,27.5,50.7,27.3 M70.9,22c0,1.4-0.2,2.7-0.5,3.9l-4.7,3c0,0.3-0.2,0.5-0.5,0.8L65,29.5
	l-0.8,0.7l0.2,0.2c-0.3,0.2-0.6,0.4-0.8,0.7c-0.3,0.3-0.5,0.5-0.6,0.9c0.1,0.2,0.3,0.3,0.5,0.4c0,0,0.1,0,0.3,0l1.3,0.1l0.1-0.3
	c1.1,0,1.8,0.3,2.3,0.8c0.5,0.6,0.7,1.3,0.7,2.2c0.1,0.1,0.1,0.1,0.2,0.2c0,0.1,0.1,0.2,0.1,0.3c0,0.2-0.1,0.6-0.4,1.1
	c-0.3,0.5-0.5,1-0.9,1.5l-0.4-0.1c-0.3,0.5-0.8,0.9-1.6,1.3c-0.7,0.4-1.5,0.7-2.4,1c-0.9,0.3-1.7,0.5-2.4,0.6
	c-0.4-0.3-0.6-0.2-0.7,0.2c-0.4-0.1-0.8-0.4-1.4-0.8c-0.6-0.4-1.1-0.9-1.5-1.5c-0.4-0.6-0.7-1.1-0.7-1.6h0.4
	c0.1-0.3,0.1-0.7,0.1-1.2c0-0.4,0.1-1,0.2-1.6c0.1-0.6,0.4-1.2,0.8-2l-0.4-0.1c0.6-0.8,1.3-1.7,2.2-2.7c0.8-1,1.7-2,2.7-2.9
	c0.3,0,0.5,0,0.6-0.1c0.1-0.1,0.1-0.2,0-0.5c0.9-0.9,1.8-1.8,2.7-2.5c0.9-0.8,1.7-1.3,2.4-1.8c0.7-0.4,1.3-0.7,1.7-0.7
	c0.2,0,0.4,0.1,0.6,0.2C70.4,21.7,70.6,21.9,70.9,22 M56.4,37.2h-0.3l0-0.7c0.2,0.1,0.2,0.3,0.3,0.4C56.4,37,56.4,37.1,56.4,37.2
	 M62.9,31.7l-0.2-0.2c-0.2,0.3-0.3,0.6-0.2,0.8L62.9,31.7z M64.2,36.6c-0.1-0.1-0.3-0.1-0.4,0c-0.2,0.1-0.3,0.2-0.4,0.3l0.2,0.1
	L64.2,36.6z M63.5,36.4c-0.3-0.2-0.5-0.4-0.7-0.7c-0.2-0.2-0.5-0.4-0.8-0.6c-0.3-0.2-0.8-0.3-1.4-0.3L59,37.5
	c0.3,0.1,0.5,0.2,0.7,0.2c0.2,0,0.4-0.1,0.5-0.3c0.5,0,1-0.1,1.6-0.3C62.4,36.9,63,36.7,63.5,36.4"/>
<path class="st1" d="M41.3,17.1c-0.2,0.5-0.8,0.8-2,0.8c-1,0-1.6-0.3-1.8-0.6c-0.1-0.2-0.2-0.4-0.2-0.7c0-0.2,0.1-0.5,0.2-0.7
	c0.3-0.4,0.9-0.7,1.9-0.7c1.2,0,1.7,0.4,1.9,0.8c0.1,0.1,0.1,0.2,0.1,0.3h-1c0,0,0-0.1-0.1-0.1c-0.1-0.1-0.4-0.3-0.9-0.3
	c-0.5,0-0.9,0.1-1,0.4c0,0.1-0.1,0.1-0.1,0.2c0,0.1,0,0.2,0.1,0.2c0.2,0.3,0.6,0.4,1,0.4c0.5,0,0.8-0.1,1-0.3c0,0,0-0.1,0-0.1h1
	C41.4,16.9,41.4,17,41.3,17.1"/>
<polygon class="st1" points="42,17.9 42,15.3 45.2,15.3 45.2,16 43,16 43,16.3 45.2,16.3 45.2,16.9 43,16.9 43,17.2 45.2,17.2 
	45.2,17.9 "/>
<path class="st1" d="M48.6,16.1c-0.1-0.1-0.2-0.1-0.3-0.1h-1.4v0.4h1.4c0.2,0,0.3,0,0.3-0.1c0,0,0-0.1,0-0.1
	C48.6,16.1,48.6,16.1,48.6,16.1 M49.4,16.6c-0.1,0.1-0.3,0.2-0.5,0.3l1,1.1h-1.1l-0.8-1h-1.1v1h-1v-2.6h2.5c0.5,0,0.8,0.1,1,0.3
	c0.1,0.1,0.2,0.3,0.2,0.5C49.6,16.3,49.5,16.4,49.4,16.6"/>
<polygon class="st1" points="52.6,17.9 51.4,17.9 49.8,15.3 50.8,15.3 52,17.2 53.3,15.3 54.3,15.3 "/>
<polygon class="st1" points="54.6,17.9 54.6,15.3 57.8,15.3 57.8,16 55.6,16 55.6,16.3 57.8,16.3 57.8,16.9 55.6,16.9 55.6,17.2 
	57.9,17.2 57.9,17.9 "/>
<polygon class="st1" points="58.4,17.9 58.4,17.2 60.4,16 58.5,16 58.5,15.3 62,15.3 62,16 59.9,17.2 62.1,17.2 62.1,17.9 "/>
<path class="st1" d="M64.8,16.2L64.7,16l-0.1,0.2l-0.4,0.6h1.1C65.2,16.9,64.8,16.2,64.8,16.2 M63.4,17.9h-1l1.8-2.6h1.1l1.7,2.6
	h-1.1l-0.3-0.4h-1.9L63.4,17.9z"/>
<path class="st1" d="M69,17.9c-1.1,0-1.6-0.3-1.9-0.7c0-0.1-0.1-0.2-0.1-0.2h1.1c0,0,0,0.1,0.1,0.1c0.1,0.1,0.4,0.2,0.9,0.2
	c0.7,0,0.8-0.1,0.8-0.2c0-0.1-0.1-0.2-0.6-0.2c-0.2,0-0.6,0-0.8,0c-1.1-0.1-1.4-0.4-1.4-0.8c0-0.5,0.6-0.9,1.8-0.9
	c1.1,0,1.5,0.3,1.8,0.6c0.1,0.1,0.1,0.2,0.1,0.3l-1.1,0c0,0,0-0.1-0.1-0.1c-0.1-0.1-0.3-0.2-0.8-0.2c-0.6,0-0.8,0-0.8,0.2
	c0,0.1,0.1,0.1,0.8,0.2c0.3,0,0.8,0.1,0.9,0.1c0.8,0.1,1.1,0.3,1.1,0.7C70.9,17.6,70.3,17.9,69,17.9"/>
<rect x="14.6" y="15.8" class="st1" width="19.1" height="1.7"/>
</svg>
